name rise36.2859peak64.2979fall75.1499.mot
datacolumns 19
datarows 30
range 24.13991200000000 24.18824400000000
endheader
time	ground_force1_vx	ground_force1_vy	ground_force1_vz	ground_force1_px	ground_force1_py	ground_force1_pz	ground_force2_vx	ground_force2_vy	ground_force2_vz	ground_force2_px	ground_force2_py	ground_force2_pz	ground_torque1_x	ground_torque1_y	ground_torque1_z	ground_torque2_x	ground_torque2_y	ground_torque2_z	
24.13991200000000	4.03253100000000	702.27589999999998	44.53436400000000	0.24881600000000	0.00000000000000	0.12382500000000	0.00000000000000	0.00000000000000	0.00000000000000	0.00000000000000	0.00000000000000	0.00000000000000	0.00000000000000	21.20653100000000	0.00000000000000	0.00000000000000	0.00000000000000	0.00000000000000	
24.14157000000000	3.77007800000000	703.31480899999997	44.58733400000000	0.24852400000000	0.00000000000000	0.12376100000000	0.00000000000000	0.00000000000000	0.00000000000000	0.00000000000000	0.00000000000000	0.00000000000000	0.00000000000000	21.28305300000000	0.00000000000000	0.00000000000000	0.00000000000000	0.00000000000000	
24.14324500000000	3.50177300000000	704.39163399999995	44.65021000000000	0.24824600000000	0.00000000000000	0.12369600000000	0.00000000000000	0.00000000000000	0.00000000000000	0.00000000000000	0.00000000000000	0.00000000000000	0.00000000000000	21.36694800000000	0.00000000000000	0.00000000000000	0.00000000000000	0.00000000000000	
24.14490600000000	3.22686800000000	705.50412400000005	44.72260200000000	0.24797800000000	0.00000000000000	0.12363200000000	0.00000000000000	0.00000000000000	0.00000000000000	0.00000000000000	0.00000000000000	0.00000000000000	0.00000000000000	21.45798100000000	0.00000000000000	0.00000000000000	0.00000000000000	0.00000000000000	
24.14657500000000	2.94463000000000	706.65007100000003	44.80411100000000	0.24771800000000	0.00000000000000	0.12356800000000	0.00000000000000	0.00000000000000	0.00000000000000	0.00000000000000	0.00000000000000	0.00000000000000	0.00000000000000	21.55590600000000	0.00000000000000	0.00000000000000	0.00000000000000	0.00000000000000	
24.14824600000000	2.65434900000000	707.82731200000001	44.89433100000000	0.24746100000000	0.00000000000000	0.12350300000000	0.00000000000000	0.00000000000000	0.00000000000000	0.00000000000000	0.00000000000000	0.00000000000000	0.00000000000000	21.66047100000000	0.00000000000000	0.00000000000000	0.00000000000000	0.00000000000000	
24.14991000000000	2.35534300000000	709.03373499999998	44.99285600000000	0.24720400000000	0.00000000000000	0.12344000000000	0.00000000000000	0.00000000000000	0.00000000000000	0.00000000000000	0.00000000000000	0.00000000000000	0.00000000000000	21.77141600000000	0.00000000000000	0.00000000000000	0.00000000000000	0.00000000000000	
24.15157800000000	2.04695800000000	710.26728600000001	45.09927400000000	0.24694400000000	0.00000000000000	0.12337700000000	0.00000000000000	0.00000000000000	0.00000000000000	0.00000000000000	0.00000000000000	0.00000000000000	0.00000000000000	21.88847500000000	0.00000000000000	0.00000000000000	0.00000000000000	0.00000000000000	
24.15324200000000	1.72857100000000	711.52597000000003	45.21317500000000	0.24667700000000	0.00000000000000	0.12331400000000	0.00000000000000	0.00000000000000	0.00000000000000	0.00000000000000	0.00000000000000	0.00000000000000	0.00000000000000	22.01137900000000	0.00000000000000	0.00000000000000	0.00000000000000	0.00000000000000	
24.15491200000000	1.39959600000000	712.80785800000001	45.33414600000000	0.24640000000000	0.00000000000000	0.12325200000000	0.00000000000000	0.00000000000000	0.00000000000000	0.00000000000000	0.00000000000000	0.00000000000000	0.00000000000000	22.13985000000000	0.00000000000000	0.00000000000000	0.00000000000000	0.00000000000000	
24.15657300000000	1.05948500000000	714.11108700000000	45.46178000000000	0.24611000000000	0.00000000000000	0.12319100000000	0.00000000000000	0.00000000000000	0.00000000000000	0.00000000000000	0.00000000000000	0.00000000000000	0.00000000000000	22.27361000000000	0.00000000000000	0.00000000000000	0.00000000000000	0.00000000000000	
24.15824300000000	0.70773100000000	715.43386499999997	45.59567100000000	0.24580400000000	0.00000000000000	0.12313100000000	0.00000000000000	0.00000000000000	0.00000000000000	0.00000000000000	0.00000000000000	0.00000000000000	0.00000000000000	22.41237800000000	0.00000000000000	0.00000000000000	0.00000000000000	0.00000000000000	
24.15990700000000	0.34387000000000	716.77447199999995	45.73541700000000	0.24547900000000	0.00000000000000	0.12307200000000	0.00000000000000	0.00000000000000	0.00000000000000	0.00000000000000	0.00000000000000	0.00000000000000	0.00000000000000	22.55586900000000	0.00000000000000	0.00000000000000	0.00000000000000	0.00000000000000	
24.16157900000000	-0.03251300000000	718.13126099999999	45.88062600000000	0.24513200000000	0.00000000000000	0.12301500000000	0.00000000000000	0.00000000000000	0.00000000000000	0.00000000000000	0.00000000000000	0.00000000000000	0.00000000000000	22.70379700000000	0.00000000000000	0.00000000000000	0.00000000000000	0.00000000000000	
24.16323900000000	-0.42179000000000	719.50266299999998	46.03090900000000	0.24476100000000	0.00000000000000	0.12295800000000	0.00000000000000	0.00000000000000	0.00000000000000	0.00000000000000	0.00000000000000	0.00000000000000	0.00000000000000	22.85587900000000	0.00000000000000	0.00000000000000	0.00000000000000	0.00000000000000	
24.16491200000000	-0.82427800000000	720.88718100000006	46.18588800000000	0.24436400000000	0.00000000000000	0.12290300000000	0.00000000000000	0.00000000000000	0.00000000000000	0.00000000000000	0.00000000000000	0.00000000000000	0.00000000000000	23.01182900000000	0.00000000000000	0.00000000000000	0.00000000000000	0.00000000000000	
24.16658000000000	-1.24024400000000	722.28339800000003	46.34519500000000	0.24393800000000	0.00000000000000	0.12284900000000	0.00000000000000	0.00000000000000	0.00000000000000	0.00000000000000	0.00000000000000	0.00000000000000	0.00000000000000	23.17136400000000	0.00000000000000	0.00000000000000	0.00000000000000	0.00000000000000	
24.16824200000000	-1.66990200000000	723.68997000000002	46.50847200000000	0.24348200000000	0.00000000000000	0.12279600000000	0.00000000000000	0.00000000000000	0.00000000000000	0.00000000000000	0.00000000000000	0.00000000000000	0.00000000000000	23.33420300000000	0.00000000000000	0.00000000000000	0.00000000000000	0.00000000000000	
24.16990900000000	-2.11341000000000	725.10562800000002	46.67537300000000	0.24299400000000	0.00000000000000	0.12274500000000	0.00000000000000	0.00000000000000	0.00000000000000	0.00000000000000	0.00000000000000	0.00000000000000	0.00000000000000	23.50006800000000	0.00000000000000	0.00000000000000	0.00000000000000	0.00000000000000	
24.17157400000000	-2.57087000000000	726.52918000000000	46.84556600000000	0.24247300000000	0.00000000000000	0.12269600000000	0.00000000000000	0.00000000000000	0.00000000000000	0.00000000000000	0.00000000000000	0.00000000000000	0.00000000000000	23.66868500000000	0.00000000000000	0.00000000000000	0.00000000000000	0.00000000000000	
24.17324400000000	-3.04232900000000	727.95950200000004	47.01873100000000	0.24191700000000	0.00000000000000	0.12264800000000	0.00000000000000	0.00000000000000	0.00000000000000	0.00000000000000	0.00000000000000	0.00000000000000	0.00000000000000	23.83978300000000	0.00000000000000	0.00000000000000	0.00000000000000	0.00000000000000	
24.17490700000000	-3.52777600000000	729.39554599999997	47.19456300000000	0.24132600000000	0.00000000000000	0.12260100000000	0.00000000000000	0.00000000000000	0.00000000000000	0.00000000000000	0.00000000000000	0.00000000000000	0.00000000000000	24.01309800000000	0.00000000000000	0.00000000000000	0.00000000000000	0.00000000000000	
24.17657800000000	-4.02714200000000	730.83632799999998	47.37277200000000	0.24069900000000	0.00000000000000	0.12255600000000	0.00000000000000	0.00000000000000	0.00000000000000	0.00000000000000	0.00000000000000	0.00000000000000	0.00000000000000	24.18837000000000	0.00000000000000	0.00000000000000	0.00000000000000	0.00000000000000	
24.17824600000000	-4.54030100000000	732.28093400000000	47.55308500000000	0.24003500000000	0.00000000000000	0.12251300000000	0.00000000000000	0.00000000000000	0.00000000000000	0.00000000000000	0.00000000000000	0.00000000000000	0.00000000000000	24.36534500000000	0.00000000000000	0.00000000000000	0.00000000000000	0.00000000000000	
24.17990700000000	-5.06706900000000	733.72851000000003	47.73524300000000	0.23933500000000	0.00000000000000	0.12247100000000	0.00000000000000	0.00000000000000	0.00000000000000	0.00000000000000	0.00000000000000	0.00000000000000	0.00000000000000	24.54377800000000	0.00000000000000	0.00000000000000	0.00000000000000	0.00000000000000	
24.18157900000000	-5.60720700000000	735.17826600000001	47.91900500000000	0.23859800000000	0.00000000000000	0.12243100000000	0.00000000000000	0.00000000000000	0.00000000000000	0.00000000000000	0.00000000000000	0.00000000000000	0.00000000000000	24.72342800000000	0.00000000000000	0.00000000000000	0.00000000000000	0.00000000000000	
24.18323700000000	-6.16042000000000	736.62946599999998	48.10414700000000	0.23782400000000	0.00000000000000	0.12239200000000	0.00000000000000	0.00000000000000	0.00000000000000	0.00000000000000	0.00000000000000	0.00000000000000	0.00000000000000	24.90406200000000	0.00000000000000	0.00000000000000	0.00000000000000	0.00000000000000	
24.18491000000000	-6.72635600000000	738.08143099999995	48.29046100000000	0.23701500000000	0.00000000000000	0.12235400000000	0.00000000000000	0.00000000000000	0.00000000000000	0.00000000000000	0.00000000000000	0.00000000000000	0.00000000000000	25.08545600000000	0.00000000000000	0.00000000000000	0.00000000000000	0.00000000000000	
24.18657600000000	-7.30461300000000	739.53353100000004	48.47775800000000	0.23617100000000	0.00000000000000	0.12231800000000	0.00000000000000	0.00000000000000	0.00000000000000	0.00000000000000	0.00000000000000	0.00000000000000	0.00000000000000	25.26739200000000	0.00000000000000	0.00000000000000	0.00000000000000	0.00000000000000	
24.18824400000000	-7.89473600000000	740.98518300000001	48.66586400000000	0.23529200000000	0.00000000000000	0.12228300000000	0.00000000000000	0.00000000000000	0.00000000000000	0.00000000000000	0.00000000000000	0.00000000000000	0.00000000000000	25.44966100000000	0.00000000000000	0.00000000000000	0.00000000000000	0.00000000000000	
